<?xml version="1.0" encoding="utf-8"?>
<!-- Generator: Adobe Illustrator 23.0.4, SVG Export Plug-In . SVG Version: 6.00 Build 0)  -->
<svg version="1.1" id="circle_of_friends__x5F__white_x26_orange"
	 xmlns="http://www.w3.org/2000/svg" xmlns:xlink="http://www.w3.org/1999/xlink" x="0px" y="0px" viewBox="0 0 256 256"
	 style="enable-background:new 0 0 256 256;" xml:space="preserve">
<style type="text/css">
	.st0{fill:#E95420;}
	.st1{fill:#FFFFFF;}
</style>
<g>
	<path class="st0" d="M256,128c0,70.7-57.3,128-128,128S0,198.7,0,128C0,57.3,57.3,0,128,0C198.7,0,256,57.3,256,128z"/>
	<path class="st1" d="M61.6,128c0,9.1-7.4,16.5-16.5,16.5c-9.1,0-16.5-7.4-16.5-16.5c0-9.1,7.4-16.5,16.5-16.5
		C54.2,111.5,61.6,118.9,61.6,128z M155.2,208c4.5,7.9,14.6,10.6,22.5,6c7.9-4.5,10.6-14.6,6-22.5c-4.5-7.9-14.6-10.6-22.5-6
		C153.4,190.1,150.7,200.1,155.2,208z M183.7,64.4c4.5-7.9,1.9-17.9-6-22.5c-7.9-4.5-17.9-1.8-22.5,6c-4.5,7.9-1.8,17.9,6,22.5
		C169.1,75,179.2,72.3,183.7,64.4z M128,81.1c24.5,0,44.6,18.8,46.7,42.8l23.8-0.4c-1.1-17.8-8.9-33.8-20.8-45.7
		c-6.3,2.4-13.6,2.1-19.9-1.5c-6.3-3.6-10.3-9.8-11.3-16.5c-5.9-1.6-12.1-2.5-18.6-2.5c-11.3,0-21.9,2.6-31.4,7.3l11.6,20.8
		C114.2,82.6,120.9,81.1,128,81.1z M81.1,128c0-15.9,7.9-29.9,20-38.4L88.8,69.2C74.6,78.6,64.1,93,59.6,110
		c5.3,4.2,8.6,10.7,8.6,18c0,7.3-3.4,13.8-8.6,18c4.5,16.9,15,31.3,29.2,40.8l12.2-20.4C89,157.9,81.1,143.9,81.1,128z M128,174.9
		c-7.1,0-13.8-1.6-19.8-4.4l-11.6,20.8c9.5,4.7,20.1,7.3,31.4,7.3c6.4,0,12.6-0.9,18.6-2.5c1-6.7,5-12.9,11.3-16.5
		c6.3-3.6,13.6-4,19.9-1.5c11.9-11.8,19.6-27.8,20.8-45.7l-23.8-0.4C172.6,156.1,152.5,174.9,128,174.9z"/>
</g>
</svg>
